<?xml version="1.0" standalone="no"?>
<!DOCTYPE svg PUBLIC "-//W3C//DTD SVG 20010904//EN"
 "http://www.w3.org/TR/2001/REC-SVG-20010904/DTD/svg10.dtd">
<svg version="1.0" xmlns="http://www.w3.org/2000/svg"
 width="720.000000pt" height="720.000000pt" viewBox="0 0 720.000000 720.000000"
 preserveAspectRatio="xMidYMid meet">
<metadata>
Created by potrace 1.11, written by Peter Selinger 2001-2013
</metadata>
<g transform="translate(0.000000,720.000000) scale(0.100000,-0.100000)"
fill="#000000" stroke="none">
<path d="M846 6121 c-45 -296 -175 -509 -380 -623 -62 -34 -153 -68 -224 -83
l-32 -7 0 -369 0 -369 325 0 325 0 0 -1390 0 -1390 -325 0 -325 0 0 -465 0
-465 3385 0 3385 0 0 465 0 465 -280 0 -280 0 0 2170 0 2170 -359 0 -360 0 -6
-57 c-48 -411 -246 -667 -580 -750 l-65 -16 0 -368 0 -369 325 0 325 0 0
-1390 0 -1390 -860 0 -860 0 0 2170 0 2170 -359 0 -358 0 -13 -92 c-32 -239
-118 -418 -267 -559 -83 -78 -156 -117 -281 -150 l-92 -24 0 -367 0 -368 325
0 325 0 0 -180 0 -180 -840 0 -840 0 0 960 0 960 -359 0 -358 0 -17 -109z
m2414 -3521 l0 -710 -840 0 -840 0 0 710 0 710 840 0 840 0 0 -710z"/>
</g>
</svg>
