<?xml version="1.0" standalone="no"?>
<!DOCTYPE svg PUBLIC "-//W3C//DTD SVG 20010904//EN"
 "http://www.w3.org/TR/2001/REC-SVG-20010904/DTD/svg10.dtd">
<svg version="1.0" xmlns="http://www.w3.org/2000/svg"
 width="720.000000pt" height="720.000000pt" viewBox="0 0 720.000000 720.000000"
 preserveAspectRatio="xMidYMid meet">
<metadata>
Created by potrace 1.11, written by Peter Selinger 2001-2013
</metadata>
<g transform="translate(0.000000,720.000000) scale(0.100000,-0.100000)"
fill="#000000" stroke="none">
<path d="M1222 6672 c-95 -16 -174 -54 -286 -139 -98 -74 -157 -149 -197 -250
l-24 -58 -3 -2785 c-2 -1976 1 -2800 9 -2838 35 -172 188 -331 364 -378 75
-20 201 -18 277 6 126 39 245 139 301 253 55 113 57 133 57 744 l0 561 805 0
804 1 62 -107 c34 -59 72 -125 84 -147 13 -22 47 -80 76 -130 28 -49 85 -147
126 -217 40 -71 107 -188 149 -260 43 -73 111 -194 153 -268 54 -95 94 -153
137 -197 194 -197 512 -200 707 -7 106 105 151 215 151 364 -1 110 -18 169
-85 283 -51 88 -170 295 -252 437 -33 58 -77 134 -98 169 -22 36 -39 68 -39
72 0 4 411 7 914 7 665 0 925 4 957 12 215 57 379 270 379 490 0 220 -164 433
-379 490 -32 8 -360 12 -1247 12 -1109 0 -1204 1 -1217 16 -7 10 -25 37 -39
62 -13 25 -60 106 -103 180 -74 128 -126 218 -299 518 -40 70 -207 359 -371
642 -164 283 -330 571 -370 640 -90 157 -205 357 -303 525 -130 225 -162 283
-162 289 0 3 965 6 2145 6 1526 0 2159 3 2197 11 85 18 173 65 244 131 210
197 210 529 0 726 -74 69 -162 115 -251 131 -93 18 -5272 20 -5373 3z m568
-2217 c35 -60 96 -167 136 -237 41 -71 107 -185 147 -255 41 -71 207 -359 370
-641 164 -283 297 -517 297 -522 0 -5 -229 -9 -510 -8 l-510 0 0 891 c0 490 2
888 4 886 2 -2 32 -53 66 -114z"/>
</g>
</svg>
