<svg width="100mm" height="100mm" version="1.1" viewBox="0 0 100 100" xmlns="http://www.w3.org/2000/svg">
 <style>.fill_this {  }</style>
 <path d="m94.897 44.319h-82.232" fill="none" stroke="#000" stroke-width=".85"/>
 <g aria-label="+">
  <path class="fill_this" d="m10.938 44.053h-3.615v3.615h-1.1011v-3.615h-3.615v-1.0613h3.615v-3.615h1.1011v3.615h3.615z" stroke-width=".84902"/>
 </g>
 <g transform="translate(-8.7879 -4.6302)" aria-label="Q">
  <path class="fill_this" d="m91.027 33.896q-0.39798 0.09949-0.78932 0.13929-0.38471 0.04643-0.78932 0.04643-1.1541 0-1.8572-0.63676-0.69646-0.63013-0.75616-1.8108-0.15919 0.02653-0.31175 0.03317-0.14592 0.01327-0.28522 0.01327-1.0414 0-1.897-0.34491-0.84902-0.34491-1.446-1.0016t-0.92198-1.6118q-0.31838-0.95515-0.31838-2.1822 0-1.2072 0.31838-2.1623 0.31838-0.96178 0.92861-1.645 0.5837-0.65003 1.446-0.99494 0.86892-0.34491 1.8904-0.34491 1.0613 0 1.9037 0.35155 0.84902 0.34491 1.4394 0.98831 0.6036 0.6633 0.92198 1.6251 0.32502 0.96178 0.32502 2.1822 0 1.8108-0.74289 3.0512-0.73626 1.2404-1.9833 1.7378 0.02653 0.75616 0.35818 1.174 0.33165 0.41788 1.2072 0.41788 0.27195 0 0.6434-0.08623 0.37808-0.07959 0.53727-0.14592h0.17909zm-1.5654-7.356q0-1.9236-0.86228-2.9649-0.86228-1.048-2.3547-1.048-1.5057 0-2.368 1.048-0.85565 1.0414-0.85565 2.9649 0 1.9435 0.87555 2.9782 0.87555 1.0281 2.3481 1.0281t2.3414-1.0281q0.87555-1.0347 0.87555-2.9782z" stroke-width=".84902"/>
 </g>
 <g fill="none" stroke="#000">
  <path d="m95.24 40.669v7.1495" stroke-width=".85"/>
  <path d="m96.66 41.621v5.312" stroke-width=".73267"/>
  <g stroke-width=".85">
   <path d="m97.979 42.607v2.7729"/>
   <path d="m18.291 44.319 8.24e-4 15.93h5.0989"/>
   <path d="m38.973 60.239h5.0989l8.24e-4 -13.993c3.2085-0.01109 3.2984-3.7156 0-3.676v-5.2521l33.48-0.085508-3.9e-5 5.252c3.2984-0.03962 3.2085 3.6649 0 3.676l-8.24e-4 13.993h-5.0989"/>
  </g>
 </g>
 <g transform="translate(-30.849 17.018)">
  <g stroke-width=".84902" aria-label="A">
   <path class="fill_this" d="m66.727 55.618h-1.3996l-0.96841-2.7527h-4.2716l-0.96841 2.7527h-1.3332l3.5951-9.8765h1.7511zm-2.7726-3.8803-1.7312-4.8487-1.7378 4.8487z" stroke-width=".84902"/>
  </g>
  <g stroke="#000">
   <path class="fill_this" d="m70.622 43.22a0.79596 0.79596 0 0 1-0.79596 0.79596 0.79596 0.79596 0 0 1-0.79596-0.79596 0.79596 0.79596 0 0 1 0.79596-0.79596 0.79596 0.79596 0 0 1 0.79596 0.79596z" fill="#fff" stroke-width=".84902"/>
   <path d="m54.24 43.231 14.148-8.1681" fill="none" stroke-width=".85"/>
   <path class="fill_this" d="m55.072 43.22a0.79596 0.79596 0 0 1-0.79596 0.79596 0.79596 0.79596 0 0 1-0.79596-0.79596 0.79596 0.79596 0 0 1 0.79596-0.79596 0.79596 0.79596 0 0 1 0.79596 0.79596z" fill="#fff" stroke-width=".84902"/>
  </g>
 </g>
 <path d="m51.771 44.233 8.24e-4 15.93h5.0989" fill="none" stroke="#000" stroke-width=".85"/>
 <g transform="translate(1.8308 16.933)">
  <g stroke-width=".84902" aria-label="B">
   <path class="fill_this" d="m66.389 52.581q0 0.73626-0.27858 1.3001-0.27858 0.5638-0.74952 0.92861-0.55717 0.43778-1.2271 0.6235-0.6633 0.18572-1.6914 0.18572h-3.5022v-9.8765h2.9251q1.0812 0 1.6184 0.0796 0.53727 0.07959 1.0281 0.33165 0.5439 0.28522 0.78932 0.73626 0.24542 0.44441 0.24542 1.0679 0 0.70309-0.35818 1.2006-0.35818 0.49084-0.95515 0.78932v0.05306q1.0016 0.20562 1.5786 0.88218 0.57707 0.66993 0.57707 1.698zm-2.2088-4.4507q0-0.35818-0.11939-0.6036-0.11939-0.24542-0.38471-0.39798-0.31175-0.17909-0.75616-0.21889-0.44441-0.04643-1.1011-0.04643h-1.5654v2.8522h1.698q0.61686 0 0.98168-0.0597 0.36481-0.06633 0.67656-0.26532 0.31175-0.19899 0.43778-0.51074 0.13266-0.31838 0.13266-0.74952zm0.84239 4.5038q0-0.59697-0.17909-0.94851t-0.65003-0.59697q-0.31838-0.16582-0.77606-0.21225-0.45104-0.05306-1.1011-0.05306h-2.0628v3.6747h1.7378q0.86228 0 1.4128-0.08623 0.55054-0.09286 0.90208-0.33165 0.37145-0.25868 0.5439-0.59033t0.17246-0.85565z" stroke-width=".84902"/>
  </g>
  <g stroke="#000">
   <path class="fill_this" d="m70.622 43.22a0.79596 0.79596 0 0 1-0.79596 0.79596 0.79596 0.79596 0 0 1-0.79596-0.79596 0.79596 0.79596 0 0 1 0.79596-0.79596 0.79596 0.79596 0 0 1 0.79596 0.79596z" fill="#fff" stroke-width=".84902"/>
   <path d="m54.24 43.231 14.148-8.1681" fill="none" stroke-width=".85"/>
   <path class="fill_this" d="m55.072 43.22a0.79596 0.79596 0 0 1-0.79596 0.79596 0.79596 0.79596 0 0 1-0.79596-0.79596 0.79596 0.79596 0 0 1 0.79596-0.79596 0.79596 0.79596 0 0 1 0.79596 0.79596z" fill="#fff" stroke-width=".84902"/>
  </g>
 </g>
 <path d="m77.553 37.232v-7.6554" fill="none" stroke="#000" stroke-width=".85"/>
</svg>
